# xmcd
#
# Track frame offsets:
#	150
#	19160
#	35804
#	48081
#	65126
#	82589
#	97415
#	117598
#	134690
#	153950
#	173493
#	192050
#	211306
#	227412
#	244238
#	266467
#
# Disc length: 3767 seconds
#
# Revision: 0
# Processed by: cddbd v1.4PL0 Copyright (c) Steve Scherf et al.
# Submitted via: EasyCDDAExtractor 4.6.9.1
#
DISCID=d90eb510
DTITLE=Nicole Renee
DYEAR=1998
DGENRE=R&B
TTITLE0=Telephone
TTITLE1=Rockin' Chair
TTITLE2=Cocaine Lane
TTITLE3=Sound of Love
TTITLE4=Strawberry 
TTITLE5=Sunshine
TTITLE6=Ain't Nothin' Changed 
TTITLE7=Wickedness
TTITLE8=Heaven
TTITLE9=Seems Like Yesterday
TTITLE10=How Many Times 
TTITLE11=Ugh! (God)
TTITLE12=Let Me Go 
TTITLE13=Boy Next Door
TTITLE14=Memorabilia
TTITLE15=Yea, Yea, Yea (non-album bonus track)
EXTD=
EXTT0=
EXTT1=
EXTT2=
EXTT3=
EXTT4=
EXTT5=
EXTT6=
EXTT7=
EXTT8=
EXTT9=
EXTT10=
EXTT11=
EXTT12=
EXTT13=
EXTT14=
EXTT15=
PLAYORDER=
